<svg xmlns="http://www.w3.org/2000/svg" viewBox="0 0 464.19509 73.53984">
  <defs>
    <style>
      .a {
        fill: #9aa6ce;
      }

      .b {
        fill: #f25959;
      }

      .c {
        fill: #2f2f2f;
      }
    </style>
  </defs>
  <path class="a" d="M76.09229,206.52393v60.25341H63.397V206.52393H40.64307v-11.2793H99.87158v11.2793Z" transform="translate(-40.64307 -193.7749)"/>
  <path class="b" d="M255.53271,266.88867h-21.875V195.4043c15.80778-.28218,27.75667-2.98467,37.67046,4.07682q6.27533,4.76122,6.27535,13.599,0,8.49609-8.98438,13.42773,13.33008,4.63917,13.33008,19.14063a18.615,18.615,0,0,1-7.37305,15.50293Q267.20216,266.88916,255.53271,266.88867ZM246.353,205.56055v17.13867c8.59744.68805,18.71585.418,18.555-9.13107C265.01705,204.41583,254.55667,205.02088,246.353,205.56055Zm0,27.05078v23.63281c10.76342.95882,22.73974.68887,22.41242-12.10941C268.86678,231.56334,257.3164,232.26187,246.353,232.61133Z" transform="translate(-40.64307 -193.7749)"/>
  <g>
    <path class="c" d="M150.62549,266.97656h-4.44336l-14.35547-32.1289L117.52,266.97656h-4.49219L93.30127,213.70508h12.8418l10.498,31.20117,12.793-31.20117h4.39453L147.061,245.10156l11.32812-31.39648h12.01172Z" transform="translate(-40.64307 -193.7749)"/>
    <path class="c" d="M174.00928,239.73047c-.21681-15.198,9.73456-27.2032,25.14705-27.00191,16.2984-.119,25.20519,10.9454,25.09752,27.00191.1541,15.84659-9.05175,27.37772-25.09767,27.24608C182.92448,267.14921,173.90215,255.54347,174.00928,239.73047Zm12.6958,0q0,17.28516,12.45117,17.28516a10.70023,10.70023,0,0,0,9.05664-4.49219q3.34571-4.49194,3.3457-12.793,0-17.04053-12.40234-17.041a10.76657,10.76657,0,0,0-9.082,4.49219Q186.70509,231.67432,186.70508,239.73047Z" transform="translate(-40.64307 -193.7749)"/>
  </g>
  <g>
    <path class="c" d="M320.81641,225.41553c-8.80447-5.84736-18.08151.95356-18.01757,11.133V266.334h-12.207V214.03857h12.207v4.78516q5.127-5.76123,13.623-5.76172,6.249,0,9.57031,1.9043Z" transform="translate(-40.64307 -193.7749)"/>
    <path class="c" d="M359.09277,261.10938c-2.55878,4.16982-9.39139,6.24394-14.40426,6.20117q-8.4478,0-13.28128-4.22461c-7.34679-6.18465-6.0981-20.82777,1.9777-26.19568,5.21311-4.01813,15.75479-6.42115,24.43831-4.39465q0-9.22853-11.66992-9.22852a25.86374,25.86374,0,0,0-11.52344,2.29492l-2.63672-9.47265c8.44459-4.41777,26.38008-4.30858,32.51948,2.41721,10.85243,10.73711.64274,38.91913,9.76568,44.94656-1.90353,3.43286-4.14927,3.76151-7.61722,3.85742C363.25741,267.45,360.02263,264.08693,359.09277,261.10938Zm-1.17187-19.38526c-9.42533-2.03085-19.56747.78644-19.14044,8.838q-.00029,7.03114,8.15411,7.03167,10.98633,0,10.98633-10.98682Z" transform="translate(-40.64307 -193.7749)"/>
    <path class="c" d="M386.334,266.334V224.04834h-6.68945V214.03857h19.043V266.334Zm6.29883-72.55908c9.38.27293,9.37725,13.88914-.00012,14.16017C383.25272,207.663,383.25511,194.04592,392.63281,193.7749Z" transform="translate(-40.64307 -193.7749)"/>
    <path class="c" d="M446.33984,266.334V236.10889q0-6.68922-2.56347-9.76563c-4.35938-5.15486-14.82128-3.36759-18.87207,2.19727V266.334h-12.207V214.03857h8.78906l2.24609,4.88282c6.0189-7.82318,22.9495-7.72109,29.41891-.26834q5.39508,5.591,5.39555,15.60037V266.334Z" transform="translate(-40.64307 -193.7749)"/>
    <path class="c" d="M468.30762,262.96484l4.3457-9.71728a19.33464,19.33464,0,0,0,12.35352,4.34619q7.12792,0,7.1289-5.07861c-.20034-5.43509-4.60363-6.61935-10.49787-9.37519q-13.52663-5.61447-13.52557-15.72247a12.34689,12.34689,0,0,1,5.17579-10.57129c7.49213-5.55351,20.252-4.50674,28.56445-.12207l-3.51563,9.47266q-4.00488-3.41748-11.13281-3.418-6.397,0-6.39648,5.07812c.2646,4.10914,5.464,5.47673,11.08382,7.93475q6.885,2.70969,9.91227,6.56721c4.72015,5.819,3.93571,16.36631-2.3683,20.77577q-5.39628,4.175-14.67271,4.17589a33.03621,33.03621,0,0,1-8.374-.85547A40.96805,40.96805,0,0,1,468.30762,262.96484Z" transform="translate(-40.64307 -193.7749)"/>
  </g>
</svg>
